<svg xmlns="http://www.w3.org/2000/svg" width="800"  viewbox="0 0 1920 1080" height="100" version="1.1">
  <path
    stroke="#000"
d="M1477.1-176.6l-1.1,308.8v9l-0.3,9.8l-0.7,7.4l-1.7,10.6l-1.8,7.9l-3.3,11.1l-4.1,10.7l-4.4,9.3l-4.6,8.2l-4.5,6.8
		l-5.4,7.2l-6.6,7.7l-6.3,6.5l-6.7,6.1l-7,5.6l-7.8,5.4l-7.1,4.3l-8.1,4.2l-8.1,3.6l-7.7,2.9l-8.1,2.5l-9.3,2.3l-8.3,1.5l-8.8,1
		l-9.5,0.5h-11.4h-9.3h-7.4h-6.9l-374,0.9v196.8l521.7,456.2l-0.7,147.7l-492.8,101.4l-3,133.2l-95.3,1l2.2-130.5l-483.1-109.1
		L369,940l501.2-457.8l-0.7-196.7c-60.2-0.6-92.5-0.8-142.3-1.3l-23.7-0.2H505.1h-11.9h-10.4h-9l-9.8-0.3l-7.4-0.7l-10.6-1.7
		l-7.9-1.8l-11.1-3.3l-10.7-4.1l-9.3-4.4L399,263l-6.8-4.5l-7.2-5.4l-7.7-6.6l-6.5-6.3l-6.1-6.7l-5.6-7l-5.4-7.8l-4.3-7.1l-4.2-8.1
		l-3.6-8.1l-2.9-7.7l-2.5-8.1l-2.3-9.3l-1.5-8.3l-1-8.8l-0.5-9.5v-11.4V123v-8.7h-83.3v1234.1H1585V-660.1h-254v10.2l191.8,56.9
		v68.4l-233.9,45v9.3l236.7,48.5v97.1l-445,51.3h-91.3v244.4l-223.1-1l0-242.1L495.9-25.1l-66.9-1l-0.8-94.8l41.2-5.4l200.3-182.6
		l2.8-170.1h408.2v148.3l384.9-39.9v-15.1l-233.9-45.7v-81.9l236.8-42.8v-11.4l-317.5-92.7h-113.2v75.6l-94.3-0.2l-1-75.4l-133,0
		v75.6l-93.6,0.7l-0.5-75.8l-22.8-2.8l-446.9-70.4l-0.7,365.1H319l0.2-108.4h51.3L370.1-6.8l0.3,125.5l0.1,10.1v11.8l1.1,15.2
		l2.8,12.9l3.6,10.4l3.6,7.7l4.6,7.9l7,9.5l6.8,7.4l7.4,6.5l8.9,6.3l9.8,5.5l7.9,3.5l10.6,3.5l9,2.1l9.6,1.3l11,0.9l14.5,0.9
		l7.1,0.4h336.6l468.1,1.9h6.9h13.2h11.8l15.2-1.1l12.9-2.8l10.4-3.6l7.7-3.6l7.9-4.6l9.5-7l7.4-6.8l6.5-7.4l6.3-8.9l5.5-9.8
		l3.5-7.9l3.5-10.6l2.1-9l1.3-9.6l0.5-10.6v-14.9l1.4-302.9L1477.1-176.6L1477.1-176.6z"
    fill="pink"/>
</svg>
