<svg xmlns="http://www.w3.org/2000/svg" width="800"  viewbox="0 0 1920 1080" height="100" version="1.1">
  <path
    stroke="#000"
d="M1240.8,561.4l-1.1,312.8v9.1l-0.3,9.9l-0.7,7.6l-1.7,10.7l-1.8,8.1l-3.3,11.2l-4.1,10.8l-4.4,9.4l-4.6,8.3l-4.5,7l-5.6,7.4
	l-6.8,7.9l-6.5,6.7l-6.9,6.3l-7.2,5.8l-8,5.6l-7.3,4.3l-8.2,4.2l-8.2,3.6l-7.9,2.9l-8.2,2.5l-9.4,2.3l-8.4,1.5l-8.9,1l-9.6,0.5
	h-11.5h-9.4h-7.6h-7.1l-378.8,0.9v199.2l517.2,465.2v118.4l-499.7,106.8v158.9h-80.9v-158.9l-485.2-106.9V1694L640,1228.7v-199.2
	c-61-0.6-108.2-0.8-158.7-1.3l-24-0.2h-201h-12h-10.5h-9.1l-9.9-0.3l-7.6-0.7l-10.7-1.7l-8.1-1.8l-11.2-3.3l-10.8-4.1l-9.4-4.4
	l-8.3-4.6l-7-4.5l-7.4-5.6l-7.9-6.8l-6.7-6.5l-6.3-6.9l-5.8-7.2l-5.6-8l-4.3-7.3l-3.9-8.2l-3.6-8.2l-2.9-7.9l-2.5-8.2l-2.3-9.4
	L81,904l-1-8.9l-0.5-9.6V874v-9.4v-8.8H0v1246.7h1350V71.7h-257.3V82l194.3,57.6v69.3l-236.9,45.6v9.4l239.7,49.2v95.3l-450.7,52
	h-92.5V706H527.2V460.2L246.9,705.7h-60.7V622l37.6-0.1l208-190.7v-176h407.4v150.2l392.9-40.5v-17.4l-236.9-46.2v-80.9l239.8-43.3
	v-11.5L910.5,71.7H795.9v76.5h-89.6V71.7H564.7v76.5h-89.6l-0.2-76.5l-28.7-2.3L0,0v367.7h79.4V258h40.5l-0.3,475.4l0.3,127.1
	l0.1,10.2v11.9l1.1,15.3l2.8,13l3.6,10.5l3.6,7.9l4.6,8.1l7.2,9.6l7,7.6l7.6,6.7l9,6.5l9.9,5.7l8.1,3.5l10.7,3.5l9.1,2.1l9.7,1.3
	l11.1,0.9l14.6,0.9l7.3,0.4h341l474.2,1.9h7.1h13.3h11.9l15.3-1.1l13-2.8l10.5-3.6l7.9-3.6l8.1-4.6l9.6-7.2l7.6-7l6.7-7.6l6.5-9
	l5.7-9.9l3.5-8.1l3.5-10.7l2.1-9.1l1.3-9.7l0.5-10.7v-15l1.4-306.7L1240.8,561.4L1240.8,561.4z"
    fill="pink"/>
</svg>
