<svg xmlns="http://www.w3.org/2000/svg" width="800"  viewbox="0 0 1920 1080" height="100" version="1.1">
  <path
    stroke="#000"
d="M-922.3,783.6V538.1l-278.8,245.4h-60.7v-83h35.9l208.3-188.2V332.8h407.5v150.7l393.5-39v-16.7l-236.7-48.1v-81.3
	l239.6-41.9v-10.1L-538,151.3c-38.6,0-77.1,0-115.9,0v76.7l-88.3-0.3V151h-141.4c0,25.7,0,51.4,0,77.1c-29.9,0.1-59.7,0.1-89.6,0.2
	c0-25.9,0-51.7,0-77.6l-28.4-2.2l-458.6-71.5l0.2,370.7h92.7v-72.1h38.8l0.1,436.2l0.4,127v10.2v11.9l1.1,15.4l2.9,13l3.7,10.5
	l3.7,7.8l4.7,8l7.1,9.6l6.9,7.5l7.5,6.6l9,6.4l9.9,5.6l8,3.6l10.7,3.6l9.1,2.1l9.7,1.3l10.7,0.5h15.1h6.3h344h429.8v44.2h-327.9
	v200.2l519.1,483.5v113l-501.8,93.2v1.5v148.2h-81.3v-148l-482-108.8l-1.2-115.9l503.7-467.2v-198.5c-60.9-0.6-117-1.2-167.4-1.7
	l-24-0.2h-200.7h-12h-10.5h-9.1l-9.9-0.3l-7.5-0.7l-10.7-1.7l-8-1.8l-11.2-3.4l-10.8-4.2l-9.4-4.5l-8.2-4.7l-6.9-4.6l-7.3-5.5
	l-7.8-6.7l-6.6-6.4l-6.2-6.8l-5.7-7.1l-5.5-7.9l-4.4-7.2l-4.3-8.1l-3.7-8.1l-3-7.8l-2.5-8.1l-2.3-9.4l-1.5-8.4l-1-8.9l-0.5-9.6
	v-11.5V943v-7.5h-92.4v1247.7h1362V152h-257v8.9l194.1,57.9v68.4l-236.7,45.9v9.4l239.6,50.6v95l-451.2,49.2h-92.4v245.4
	L-922.3,783.6z"
    fill="pink"/>
</svg>
